<svg width="158" height="67" viewBox="0 0 158 67" fill="none" xmlns="http://www.w3.org/2000/svg">
<g clip-path="url(#clip0_401:10427)">
<path d="M0.474304 44.2448V22.6691H9.4106C10.2944 22.6622 11.1671 22.8657 11.9565 23.2628C12.7509 23.6331 13.4634 24.1579 14.0527 24.8063C14.6211 25.4477 15.0695 26.186 15.3766 26.9859C15.6864 27.7692 15.8475 28.6032 15.8518 29.4454C15.8487 30.3123 15.6995 31.1724 15.4105 31.9897C15.1279 32.7858 14.6991 33.5221 14.146 34.1609C13.6 34.7921 12.9336 35.3082 12.1856 35.679C11.3949 36.0708 10.5222 36.2685 9.6397 36.2557H2.59593V44.2194L0.474304 44.2448ZM2.57044 34.3983H9.47845C10.0701 34.4041 10.6538 34.2613 11.1757 33.9828C11.689 33.715 12.1401 33.3422 12.4996 32.8887C12.8747 32.4179 13.1621 31.8836 13.3483 31.3113C13.5526 30.7105 13.6559 30.08 13.6538 29.4454C13.6564 28.7961 13.5384 28.152 13.3059 27.5457C13.084 26.9727 12.7654 26.442 12.3639 25.9767C11.9707 25.5399 11.4948 25.1853 10.9636 24.9335C10.4338 24.6801 9.85361 24.5496 9.26629 24.5519H2.59593L2.57044 34.3983Z" fill="#F6AC10"/>
<path d="M18.1682 22.0586H20.2389V40.6574C20.2244 40.9084 20.2598 41.1596 20.3428 41.3969C20.4258 41.6341 20.5549 41.8526 20.7226 42.0399C20.9057 42.2123 21.122 42.3456 21.3584 42.4316C21.5948 42.5177 21.8462 42.5546 22.0974 42.5402C22.3628 42.5339 22.6271 42.5027 22.8866 42.447C23.176 42.3931 23.46 42.3137 23.7353 42.2095L24.1003 43.9057C23.6458 44.085 23.1735 44.2158 22.6915 44.2958C22.2132 44.3893 21.7275 44.4403 21.2403 44.4485C20.8274 44.4863 20.4112 44.4328 20.0213 44.2919C19.6314 44.151 19.2773 43.9261 18.9841 43.6331C18.6909 43.3401 18.4659 42.9862 18.3248 42.5965C18.1838 42.2069 18.1303 41.791 18.1682 41.3783V22.0586Z" fill="#F6AC10"/>
<path d="M26.4518 25.0948V22.0586H28.4801V25.0948H26.4518ZM26.4518 44.2449V28.4109H28.4801V44.2449H26.4518Z" fill="#F6AC10"/>
<path d="M30.8649 36.2816C30.8603 35.2006 31.0559 34.1281 31.4419 33.1182C31.8067 32.1533 32.3606 31.271 33.0713 30.523C33.7921 29.7735 34.6584 29.1789 35.6173 28.7759C36.6365 28.3427 37.7347 28.1261 38.8422 28.1398C40.2185 28.1067 41.5767 28.4592 42.7629 29.1576C43.8621 29.8051 44.7473 30.7604 45.3089 31.9054L43.2976 32.5415C42.869 31.7491 42.2285 31.0914 41.4475 30.6417C40.6992 30.2323 39.8661 30.0016 39.0136 29.9677C38.1611 29.9339 37.3123 30.0978 36.5338 30.4467C35.8444 30.7633 35.2244 31.2129 34.7093 31.7697C34.1779 32.3481 33.7655 33.0253 33.4956 33.7628C33.1895 34.5755 33.0398 35.4387 33.0544 36.3071C33.0471 37.1755 33.1995 38.0379 33.5041 38.8514C33.7866 39.6081 34.2099 40.3045 34.7517 40.9038C35.271 41.4741 35.8965 41.9379 36.5932 42.2692C37.2882 42.6079 38.052 42.7821 38.8252 42.7781C39.3366 42.7761 39.8451 42.7019 40.3358 42.5576C40.8212 42.4259 41.2866 42.2291 41.7191 41.9724C42.1222 41.7428 42.4908 41.4572 42.8138 41.1243C43.1004 40.8343 43.318 40.4836 43.4503 40.0981L45.4531 40.7002C45.2279 41.2772 44.9001 41.8087 44.4857 42.2692C44.0468 42.7574 43.5377 43.1775 42.9751 43.5159C42.3818 43.8871 41.7389 44.1727 41.0656 44.364C40.3571 44.5541 39.6267 44.6511 38.8931 44.6524C37.7924 44.6633 36.7019 44.4407 35.6937 43.9993C34.7335 43.5757 33.8679 42.9644 33.1477 42.2014C32.417 41.443 31.8406 40.5501 31.4504 39.5722C31.0388 38.525 30.8397 37.4064 30.8649 36.2816Z" fill="#F6AC10"/>
<path d="M55.6366 22.6689H60.1345L68.0099 44.2446H62.9181L61.2208 39.4105H54.4994L52.8615 44.2446H47.7697L55.6366 22.6689ZM60.4145 35.9757L57.8686 28.3427L55.3226 35.9757H60.4145Z" fill="#F6AC10"/>
<path d="M70.3444 44.2449V22.6692H80.0698C81.0456 22.6602 82.0102 22.878 82.8874 23.3053C83.7312 23.7258 84.4883 24.3012 85.1193 25.0015C85.7468 25.6878 86.2469 26.4805 86.5959 27.3423C86.9454 28.1809 87.127 29.0799 87.1306 29.9883C87.1314 30.6379 87.0487 31.285 86.8845 31.9135C86.7255 32.5223 86.4917 33.1091 86.1886 33.6606C85.889 34.2021 85.5148 34.6988 85.0769 35.1363C84.6358 35.5701 84.1393 35.9437 83.6002 36.2473L88.3442 44.2704H82.7176L78.5508 37.282H75.3259V44.2449H70.3444ZM75.3259 32.9482H79.8917C80.1947 32.9407 80.4914 32.8596 80.7561 32.7118C81.0208 32.5641 81.2454 32.3541 81.4107 32.1001C81.8578 31.4797 82.0821 30.7266 82.0472 29.9629C82.0902 29.1855 81.8284 28.4219 81.3174 27.8341C81.1259 27.5976 80.886 27.4048 80.6137 27.2687C80.3414 27.1327 80.0431 27.0565 79.7389 27.0454H75.3259V32.9482Z" fill="#F6AC10"/>
<path d="M80.0261 13.079C80.167 13.3335 80.3736 13.5457 80.6243 13.6934C80.8751 13.8411 81.1608 13.919 81.4518 13.919C81.7429 13.919 82.0287 13.8411 82.2794 13.6934C82.5301 13.5457 82.7367 13.3335 82.8776 13.079L87.1972 5.33584L90.9907 12.2818C91.0902 12.4773 91.2282 12.6509 91.3962 12.7921C91.5642 12.9333 91.7589 13.0394 91.9687 13.1039C92.1786 13.1684 92.3993 13.1901 92.6177 13.1677C92.8361 13.1453 93.0478 13.0793 93.2401 12.9735C93.4325 12.8677 93.6016 12.7244 93.7374 12.552C93.8732 12.3796 93.9729 12.1817 94.0306 11.97C94.0884 11.7583 94.103 11.5372 94.0735 11.3197C94.0441 11.1023 93.9711 10.893 93.8591 10.7043L89.8789 3.41912H100.411C100.695 3.41895 100.975 3.34471 101.222 3.20371C101.469 3.0627 101.675 2.8598 101.82 2.615C101.965 2.37019 102.043 2.09193 102.047 1.80761C102.052 1.52329 101.982 1.24273 101.845 0.993566C101.707 0.734459 101.5 0.518313 101.247 0.368749C100.994 0.219185 100.705 0.141954 100.411 0.145465H88.3599L88.2835 0.00976562L88.2156 0.145465H86.3401L85.3981 1.84167L85.3387 1.96888L80.0261 11.4931C79.8886 11.7378 79.8163 12.0138 79.8163 12.2945C79.8163 12.5752 79.8886 12.8512 80.0261 13.096V13.079Z" fill="#F6AC10"/>
<path d="M100.394 63.4296H89.8795L93.8682 56.1359C93.9802 55.9472 94.0531 55.738 94.0826 55.5205C94.112 55.3031 94.0975 55.082 94.0397 54.8703C93.982 54.6586 93.8823 54.4607 93.7465 54.2883C93.6106 54.1159 93.4416 53.9725 93.2492 53.8667C93.0569 53.761 92.8452 53.6949 92.6268 53.6725C92.4083 53.6501 92.1877 53.6718 91.9778 53.7364C91.768 53.8009 91.5733 53.9069 91.4053 54.0481C91.2372 54.1894 91.0993 54.3629 90.9997 54.5585L87.1978 61.5129L82.8782 53.7697C82.7373 53.5152 82.5308 53.3031 82.28 53.1553C82.0293 53.0076 81.7435 52.9297 81.4525 52.9297C81.1614 52.9297 80.8757 53.0076 80.6249 53.1553C80.3742 53.3031 80.1676 53.5152 80.0267 53.7697C79.8907 54.0134 79.8193 54.2879 79.8193 54.5669C79.8193 54.846 79.8907 55.1204 80.0267 55.3642L85.3393 64.9053L85.4072 65.0325L86.3492 66.7287H88.2162L88.2926 66.856L88.3605 66.7287H100.403C100.696 66.7277 100.983 66.6485 101.235 66.4994C101.487 66.3503 101.695 66.1367 101.837 65.8806C101.981 65.6301 102.056 65.3461 102.054 65.0573C102.052 64.7685 101.974 64.4853 101.828 64.2364C101.681 63.9875 101.472 63.7818 101.22 63.6401C100.968 63.4984 100.683 63.4258 100.394 63.4296Z" fill="#F6AC10"/>
<path d="M116.62 31.7363H105.096L100.513 23.3486C100.413 23.153 100.276 22.9795 100.108 22.8383C99.9395 22.6971 99.7447 22.591 99.5349 22.5265C99.3251 22.462 99.1044 22.4403 98.886 22.4627C98.6676 22.4851 98.4559 22.5511 98.2636 22.6569C98.0712 22.7627 97.9021 22.906 97.7663 23.0784C97.6305 23.2508 97.5307 23.4487 97.473 23.6604C97.4153 23.8721 97.4007 24.0932 97.4302 24.3107C97.4596 24.5281 97.5325 24.7374 97.6446 24.9261L102.287 33.4071L97.6446 41.8881C97.5259 42.0771 97.4471 42.2884 97.4132 42.509C97.3792 42.7295 97.3907 42.9547 97.447 43.1706C97.5033 43.3866 97.6032 43.5887 97.7405 43.7647C97.8779 43.9406 98.0497 44.0867 98.2456 44.1938C98.4415 44.301 98.6572 44.3669 98.8796 44.3877C99.1019 44.4085 99.3261 44.3836 99.5384 44.3146C99.7508 44.2456 99.9468 44.134 100.114 43.9865C100.282 43.839 100.418 43.6589 100.513 43.4571L105.121 35.0354H116.62C116.867 35.0855 117.121 35.0801 117.366 35.0197C117.61 34.9594 117.837 34.8456 118.032 34.6865C118.227 34.5274 118.384 34.327 118.492 34.0999C118.599 33.8728 118.655 33.6245 118.655 33.3732C118.655 33.1218 118.599 32.8736 118.492 32.6464C118.384 32.4193 118.227 32.2189 118.032 32.0598C117.837 31.9007 117.61 31.7869 117.366 31.7266C117.121 31.6662 116.867 31.6609 116.62 31.7109V31.7363Z" fill="#F6AC10"/>
<path d="M156.923 32.7113L139.839 1.00923C139.708 0.75536 139.51 0.542179 139.266 0.392712C139.022 0.243245 138.742 0.163171 138.456 0.161133C138.17 0.163171 137.89 0.243245 137.646 0.392712C137.402 0.542179 137.204 0.75536 137.073 1.00923L131.837 10.7539C131.757 10.9021 131.702 11.0626 131.675 11.2289L126.269 1.1619C126.14 0.908089 125.944 0.694706 125.701 0.545118C125.459 0.39553 125.18 0.315505 124.895 0.313798H111.834C111.418 0.313798 111.018 0.479103 110.724 0.773346C110.429 1.06759 110.264 1.46666 110.264 1.88278C110.264 2.2989 110.429 2.69798 110.724 2.99222C111.018 3.28646 111.418 3.45177 111.834 3.45177H123.953L139.076 31.5918H129.469C128.969 31.5918 128.49 31.7901 128.137 32.1432C127.783 32.4963 127.585 32.9752 127.585 33.4745C127.585 33.9739 127.783 34.4528 128.137 34.8059C128.49 35.159 128.969 35.3573 129.469 35.3573H139.16L124.224 63.4804H111.834C111.418 63.4804 111.018 63.6457 110.724 63.9399C110.429 64.2342 110.264 64.6332 110.264 65.0494C110.264 65.4655 110.429 65.8646 110.724 66.1588C111.018 66.453 111.418 66.6184 111.834 66.6184H125.166C125.451 66.6176 125.731 66.538 125.973 66.3883C126.216 66.2386 126.413 66.0247 126.541 65.7703L131.913 55.6694C131.943 55.7786 131.986 55.884 132.04 55.9832L137.37 65.66C137.5 65.9132 137.697 66.1261 137.939 66.2756C138.181 66.425 138.46 66.5055 138.745 66.5081C139.029 66.5055 139.308 66.425 139.55 66.2756C139.793 66.1261 139.989 65.9132 140.119 65.66L156.914 34.153C157.031 33.9309 157.092 33.6841 157.094 33.4332C157.095 33.1823 157.037 32.9348 156.923 32.7113Z" fill="#FC7105"/>
</g>
<defs>
<clipPath id="clip0_401:10427">
<rect width="156.61" height="66.8304" fill="white" transform="translate(0.5)"/>
</clipPath>
</defs>
</svg>
